<?xml version="1.0" encoding="utf-8"?>
<!-- Generator: Adobe Illustrator 23.1.0, SVG Export Plug-In . SVG Version: 6.00 Build 0)  -->
<svg version="1.1" id="Слой_1" xmlns="http://www.w3.org/2000/svg" xmlns:xlink="http://www.w3.org/1999/xlink" x="0px" y="0px"
	 viewBox="0 0 512 512" style="enable-background:new 0 0 512 512;" xml:space="preserve">
<style type="text/css">
	.st0{fill:#EF9B2A;}
	.st1{fill:#EF9B2B;}
	.st2{fill:#EF9C2B;}
	.st3{fill:#F09D2B;}
	.st4{fill:#F09C2A;}
	.st5{fill:#F09C2B;}
	.st6{fill:#EE9A29;}
	.st7{fill:#EF9A2A;}
</style>
<g>
	<g>
		<path class="st0" d="M129.79,77.56c2.49-9.91,8.72-17.57,17.81-22.79c9.19-5.29,18.99-6.23,29.34-2.8
			c4.7-9.73,12.07-16.5,22.35-19.66c10.25-3.16,20.04-1.73,29.17,4.15c7.35-8.62,16.18-14.04,27.6-14.17
			c11.5-0.13,20.24,5.48,27.08,13.27c5.2-1.71,9.9-3.85,14.83-4.75c14.31-2.6,29.8,5.44,36.33,18.49c0.85,1.71,1.58,2.1,3.48,1.57
			c14.41-4.04,31.5,2.53,39.97,15.53c2,3.07,3.28,6.65,4.68,10.07c0.48,1.16,0.85,1.74,2.19,1.58c19.23-2.17,37.1,14.31,36.2,34.05
			c-0.02,0.39,0.07,0.78,0.13,1.33c6.4,0.92,12.27,3.06,17.3,7.19c11.1,9.13,15.31,20.78,12.58,34.86c-0.36,1.85,0.01,2.68,1.74,3.5
			c12.48,5.97,18.91,16.01,18.91,29.78c0,3.77-1.48,7.57-2.5,11.3c-0.48,1.77-1.47,3.39-2.3,5.24c7.97,5.46,13.06,12.84,14.81,22.3
			c1.78,9.6-0.93,18.13-6.81,25.94c5.71,7.71,8.66,16.17,6.8,25.79c-1.82,9.42-7.12,16.54-14.6,21.56
			c1.39,4.38,3.13,8.44,3.93,12.68c2.37,12.46-4.67,26.31-15.92,32.06c-4.62,2.37-4.62,2.37-4.11,7.39
			c1.87,18.36-9.94,33.93-28.19,37.17c-0.47,0.08-0.92,0.24-1.36,0.36c0.98,22.92-19.52,37.15-36.99,34.7
			c-2.29,10.51-8.26,18.38-17.88,23.2c-9.52,4.77-19.45,5.24-29.62,1.57c-4.61,10.08-12.46,16.14-22.95,18.75
			c-10.54,2.63-20.23,0.04-29.51-5.65c-7.45,8.55-16.42,14.35-28.11,14.32c-11.56-0.04-20.66-5.37-28.07-14.21
			c-9.25,5.34-18.94,8.17-29.58,5.47c-10.53-2.67-18.29-8.78-22.81-18.97c-10.2,3.79-20.06,3.58-29.65-1.27
			c-9.57-4.84-15.42-12.63-17.84-23.21c-5.4,0.62-10.47-0.02-15.4-1.96c-12.61-4.95-20.48-16.07-20.85-29.83
			c-0.05-1.97-0.42-2.89-2.65-3.29c-20.35-3.6-31.13-24.28-26.03-42.32c-8.69-3.99-15.76-9.75-19.24-19.09
			c-3.48-9.33-2.59-18.31,2.42-27.12c-7.92-5.46-13.4-12.52-15.17-22.09c-1.79-9.65,0.93-18.12,6.45-25.38
			c-1.93-4.42-4.16-8.4-5.44-12.67c-3.63-12.1,1.17-25.84,11.43-33.9c2.83-2.23,2.83-2.23,1.31-5.35
			c-7.78-15.99-1.87-33.89,13.92-42.14c3.56-1.86,3.56-1.86,2.71-5.9c-4.01-18.92,9.02-37.87,28.05-40.59
			c2.06-0.29,2.17-1.24,2.19-2.87c0.19-15.86,10.94-29.12,26.47-32.34C121.95,77.7,125.73,77.85,129.79,77.56z M262.82,246.97
			c0.22-0.1,0.44-0.21,0.66-0.31c15.71-8.78,31.46-17.49,47.13-26.35c24.43-13.81,48.8-27.72,73.19-41.58
			c19.6-11.14,39.19-22.29,58.81-33.39c1.11-0.63,1.39-1.22,1.16-2.49c-2.17-12.43-12.96-21.83-25.88-22.46
			c-3.67-0.18-5.11-1.85-4.71-5.47c2.06-18.38-12.16-32.19-30.5-29.62c-4.96,0.7-5.92-0.08-6.84-5c-0.81-4.34-2.53-8.3-5.57-11.93
			c-0.75,1.15-1.34,2-1.88,2.89c-11.91,19.52-23.82,39.04-35.71,58.57c-11.81,19.39-23.63,38.77-35.38,58.2
			c-7.3,12.07-14.52,24.19-21.7,36.34c-4.29,7.25-8.45,14.59-12.66,21.88c-0.04,0.25-0.07,0.51-0.11,0.76
			c-0.11,0.01-0.23,0.02-0.34,0.03c0.02,0.07,0.03,0.14,0.05,0.2C262.64,247.15,262.73,247.06,262.82,246.97z M264.04,261.79
			c-0.2-0.05-0.39-0.1-0.59-0.14c0.07,0.19,0.13,0.38,0.2,0.57c2.27,3.73,4.5,7.49,6.83,11.19c14.84,23.6,29.68,47.2,44.56,70.78
			c8.09,12.82,16.28,25.57,24.35,38.4c9.06,14.4,18.03,28.87,27.07,43.29c1.8,2.87,3.7,5.67,5.65,8.65
			c2.79-3.69,4.75-7.48,5.2-11.87c0.45-4.43,2.13-5.75,6.6-4.9c10.06,1.91,19.84-2.32,25.48-10.87c3.52-5.33,4.6-11.16,3.99-17.41
			c-0.41-4.13,0.76-5.52,4.82-5.75c1.13-0.06,2.26-0.21,3.38-0.42c9.68-1.86,16.38-7.42,20.19-16.45c1.34-3.19,1.17-3.39-1.81-5.08
			c-8.04-4.57-16.07-9.13-24.1-13.71c-20.48-11.71-40.95-23.45-61.44-35.14c-20.7-11.81-41.42-23.59-62.16-35.35
			C282.88,272.27,273.44,267.05,264.04,261.79z M69.11,152.43c-0.11-0.08-0.23-0.16-0.34-0.24c0,0.19,0,0.38,0,0.57
			c0.48,1.79,0.9,3.6,1.45,5.37c0.91,2.95,0.01,4.88-2.82,5.99c-1.36,0.53-2.71,1.08-4.02,1.72c-14.57,7.15-18.41,23.68-10.62,35.52
			c0.58,0.88,1.17,1.76,1.68,2.68c1.3,2.3,0.76,4.43-1.45,5.88c-0.75,0.49-1.53,0.92-2.28,1.4c-13.45,8.75-16.34,26.32-6.21,38.25
			c0.7,0.83,2.14,1.44,3.24,1.46c8.11,0.1,16.22,0.02,24.33,0.02c18,0,36,0.02,54.01,0.03c24.26,0.01,48.51,0.03,72.77,0.03
			c13.47,0,26.93-0.05,40.4-0.09c0.92,0,1.84-0.1,3.4-0.19c-1.29-0.78-2.02-1.24-2.77-1.67c-12.35-6.98-24.72-13.93-37.05-20.94
			c-19.39-11.01-38.76-22.06-58.15-33.07c-19.74-11.21-39.49-22.41-59.25-33.59C80,158.48,74.55,155.46,69.11,152.43z
			 M252.24,237.51c0.19-0.03,0.37-0.06,0.56-0.09c0-69.14,0-138.27,0-207.67c-1.04,0.17-1.83,0.23-2.59,0.42
			c-6.82,1.76-12,5.89-16.28,11.3c-3.12,3.94-4.51,4.11-8.66,1.26c-5.32-3.66-11.21-5.49-17.68-4.87
			c-11.9,1.14-19.8,7.69-24.47,18.45c-1.66,3.81-3.16,4.49-6.98,2.96c-9.59-3.85-18.58-2.45-27.14,3.01
			c-1.47,0.94-1.93,1.74-0.83,3.48c5.91,9.4,11.69,18.89,17.47,28.37c12.38,20.27,24.79,40.53,37.1,60.84
			c11.51,19,22.9,38.07,34.33,57.11C242.14,220.55,247.18,229.03,252.24,237.51z M365.16,63.51c-0.76-0.57-1.43-1.13-2.17-1.61
			c-8.52-5.61-17.52-6.8-27.1-3c-3.34,1.32-5.15,0.52-6.35-2.62c-7.46-19.52-29.75-23.86-43.39-13.05
			c-2.53,2.01-4.91,1.45-7.02-0.94c-2.35-2.67-4.77-5.32-7.46-7.61c-3.38-2.87-7.39-4.53-11.89-4.89c0,69.22,0,138.23,0,207.65
			C295.07,179.2,330.07,121.42,365.16,63.51z M142.6,68.89c-0.32,0.05-0.63,0.1-0.95,0.14c-2.38,3.63-4.47,7.41-5.11,11.84
			c-0.55,3.84-2.14,4.92-5.91,4.56c-3.21-0.31-6.54-0.73-9.67-0.21c-14.29,2.38-23.44,15.27-21.51,29.84
			c0.4,3.02-1.01,4.83-4.04,5.18c-0.72,0.08-1.46,0.06-2.19,0.1c-12.03,0.61-22.8,10.36-24.62,22.23c-0.2,1.29,0.03,2.06,1.27,2.72
			c3.15,1.67,6.2,3.53,9.31,5.28c19.47,11.03,38.96,22.03,58.42,33.07c14.31,8.13,28.58,16.34,42.9,24.46
			c21.73,12.32,43.48,24.58,65.23,36.86c1.23,0.69,2.49,1.33,3.74,1.99c0.23-0.2,0.46-0.4,0.69-0.6
			C214.31,187.19,178.46,128.04,142.6,68.89z M367.21,439.36c-35.77-56.67-71.42-113.15-107.42-170.2c0,67.4,0,134.07,0,201.11
			c1.95-0.57,3.52-0.94,5.01-1.49c6.13-2.27,10.81-6.4,14.74-11.52c2.23-2.9,4.22-3.04,7.36-1.12c2.69,1.64,5.42,3.28,8.3,4.52
			c12.12,5.21,29.54,0.65,35.45-15.16c1.32-3.54,3.19-4.15,6.86-2.86c3.26,1.15,6.63,2.4,10.02,2.69
			C354.7,445.95,361.25,443.88,367.21,439.36z M252.76,269.94c-36.16,56.81-71.91,112.97-107.93,169.56
			c2.51,1.35,4.55,2.67,6.74,3.59c7.87,3.29,15.65,2.77,23.32-0.85c3.37-1.59,5.53-0.55,6.83,2.85
			c4.28,11.12,11.79,16.51,23.96,17.49c7.09,0.57,13.35-2.12,19.15-5.98c3.83-2.56,5.42-2.25,8.44,1.3c1.99,2.34,4.07,4.66,6.43,6.6
			c3.72,3.05,8.06,4.92,13.07,5.57C252.76,403.36,252.76,337.01,252.76,269.94z M269.97,250.8c0.89,0.12,1.18,0.19,1.47,0.19
			c19.31,0.08,38.62,0.21,57.94,0.23c18.25,0.01,36.5-0.11,54.75-0.14c7.14-0.01,14.28,0.11,21.42,0.13
			c11.84,0.02,23.69,0.03,35.54,0c8.2-0.02,16.39-0.09,24.59-0.19c0.73-0.01,1.7-0.24,2.14-0.74c1.27-1.46,2.51-3.01,3.42-4.7
			c6.82-12.67,2.77-27.37-9.55-34.94c-4.41-2.71-4.8-4.43-1.95-8.59c6.06-8.84,6.01-19.75-0.23-28.47
			c-3.47-4.85-8.23-7.94-13.87-9.77c-3.04-0.99-3.9-2.74-3.03-5.79c0.5-1.77,0.92-3.56,1.54-5.99
			C385.89,185.06,328.22,217.77,269.97,250.8z M271.36,257.71c-0.02,0.16-0.04,0.32-0.06,0.48c57.3,32.64,114.61,65.28,172.6,98.31
			c-0.49-3.07-0.67-5.48-1.28-7.78c-1.15-4.33-0.28-5.55,3.93-7.25c3.32-1.34,6.74-3.04,9.36-5.41c9.48-8.58,10.67-21.89,3.3-32.43
			c-1.88-2.7-1.9-4.73,0.08-6.49c0.78-0.69,1.74-1.17,2.65-1.71c12.94-7.72,16.5-23.39,8.13-35.53c-1.12-1.63-2.34-2.39-4.37-2.36
			c-6.89,0.1-13.79,0.03-20.69,0.03c-57.11,0.01-114.23,0.02-171.34,0.04C272.9,257.6,272.13,257.67,271.36,257.71z M69.15,355.29
			c0.28,0.16,0.57,0.32,0.85,0.48c57.02-32.57,114.04-65.15,171.06-97.72c-5.34-0.52-10.57-0.52-15.8-0.52
			c-46.08-0.01-92.17-0.02-138.25-0.02c-13.39,0-26.77,0.06-40.16,0.02c-1.71-0.01-2.84,0.57-3.88,1.91
			c-4.64,5.92-5.8,12.65-4.28,19.77c1.63,7.61,6.14,13.29,12.95,17.1c3.5,1.96,4.03,3.81,2.04,7.33c-0.76,1.34-1.55,2.67-2.17,4.08
			c-3.08,6.91-3.21,13.8,0.31,20.63c3.39,6.59,8.62,11.02,15.63,13.42c3.54,1.21,4.35,3.01,3.32,6.53
			C70.09,350.58,69.68,352.95,69.15,355.29z M250.38,261.37c-0.15-0.15-0.31-0.31-0.46-0.46c-0.71,0.35-1.43,0.66-2.11,1.04
			c-15.04,8.49-30.1,16.96-45.11,25.51c-22.48,12.81-44.92,25.68-67.37,38.53c-20.76,11.88-41.53,23.77-62.28,35.67
			c-3.09,1.77-3.08,1.8-1.9,5.21c3.33,9.65,12.89,16.6,23.36,16.99c4.01,0.15,5.31,1.77,4.88,5.7c-2,18.3,13.68,31.17,28.82,28.43
			c5.23-0.94,6.3,0.04,6.99,5.2c0.56,4.13,2.22,7.8,4.97,11.19C177.04,376.46,213.71,318.92,250.38,261.37z"/>
		<path class="st1" d="M215.04,90.43c4.2-0.04,7.5,3.17,7.47,7.25c-0.03,3.96-3.55,7.52-7.41,7.49c-4.01-0.03-7.28-3.41-7.28-7.54
			C207.82,93.54,210.89,90.47,215.04,90.43z"/>
		<path class="st2" d="M297.62,105.09c-4.02-0.04-7.36-3.46-7.35-7.53c0.01-4.08,3.37-7.25,7.59-7.16c4.24,0.09,7.22,3.11,7.16,7.26
			C304.97,101.8,301.65,105.13,297.62,105.09z"/>
		<path class="st2" d="M362.68,144.3c0.01-4.07,3.33-7.25,7.54-7.21c3.91,0.04,7.15,3.43,7.08,7.44c-0.07,4.16-3.29,7.37-7.43,7.39
			C365.91,151.93,362.67,148.5,362.68,144.3z"/>
		<path class="st1" d="M150.74,144.32c-0.01,4.22-3.2,7.52-7.29,7.56c-4.1,0.03-7.45-3.3-7.45-7.4c0-4.04,3.41-7.43,7.47-7.42
			C147.48,137.05,150.75,140.32,150.74,144.32z"/>
		<path class="st3" d="M297.55,390.81c4.14-0.08,7.46,3.13,7.5,7.24c0.04,4.05-3.26,7.43-7.33,7.49c-3.86,0.06-7.28-3.23-7.42-7.15
			C290.17,394.46,293.58,390.89,297.55,390.81z"/>
		<path class="st4" d="M207.84,398.15c-0.02-4.21,3.2-7.46,7.32-7.4c3.82,0.06,7.27,3.56,7.27,7.38c-0.01,4-3.39,7.33-7.49,7.37
			C210.93,405.54,207.86,402.35,207.84,398.15z"/>
		<path class="st5" d="M414.53,214c-0.02,4.14-3.29,7.51-7.32,7.52c-3.95,0.01-7.42-3.53-7.37-7.51c0.06-4.18,3.2-7.1,7.61-7.05
			C411.52,207.01,414.54,210.01,414.53,214z"/>
		<path class="st1" d="M99.08,214.32c0-4.41,2.92-7.35,7.29-7.33c4.14,0.02,7.35,3.13,7.35,7.13c0,4.05-3.4,7.46-7.42,7.44
			C102.19,221.55,99.08,218.43,99.08,214.32z"/>
		<path class="st5" d="M414.48,293.53c0.05,4.04-3.07,7.25-7.14,7.36c-4.02,0.11-7.45-3.2-7.56-7.29c-0.11-4.08,3.17-7.39,7.35-7.43
			C411.36,286.12,414.43,289.2,414.48,293.53z"/>
		<path class="st6" d="M113.73,293.39c0,4.23-3.14,7.46-7.3,7.48c-4.11,0.02-7.33-3.26-7.3-7.45c0.03-4.41,3.03-7.39,7.34-7.31
			C110.54,286.18,113.73,289.38,113.73,293.39z"/>
		<path class="st7" d="M150.77,359.79c-0.04,4.07-3.27,7.35-7.18,7.29c-4.37-0.06-7.49-3.21-7.45-7.51
			c0.04-4.07,3.41-7.31,7.53-7.23C147.53,352.41,150.8,355.84,150.77,359.79z"/>
		<path class="st1" d="M377.3,359.83c-0.03,4.06-3.33,7.3-7.29,7.19c-4.31-0.12-7.37-3.24-7.32-7.46c0.05-3.95,3.46-7.34,7.31-7.3
			C374.03,352.31,377.33,355.73,377.3,359.83z"/>
	</g>
</g>
<g>
</g>
<g>
</g>
<g>
</g>
<g>
</g>
<g>
</g>
<g>
</g>
<g>
</g>
<g>
</g>
<g>
</g>
<g>
</g>
<g>
</g>
<g>
</g>
<g>
</g>
<g>
</g>
<g>
</g>
</svg>
